<!DOCTYPE svg PUBLIC "-//W3C//DTD SVG 1.1//EN" "http://www.w3.org/Graphics/SVG/1.1/DTD/svg11.dtd">
<!-- Uploaded to: SVG Repo, www.svgrepo.com, Transformed by: SVG Repo Mixer Tools -->
<svg fill="#FFD36A" width="256px" height="256px" viewBox="0 0 96 96" xmlns="http://www.w3.org/2000/svg">
<g id="SVGRepo_bgCarrier" stroke-width="0"/>
<g id="SVGRepo_tracerCarrier" stroke-linecap="round" stroke-linejoin="round"/>
<g id="SVGRepo_iconCarrier"> <path d="M43.5 4.903a11.83 11.83 0 0 0-3.25 19.687c3.919 3.592 4.426 4.41 2.733 4.41-3.567 0-36.819 16.345-37.848 18.604-1.671 3.666-1.481 23.457.248 25.923 1.978 2.82 30.025 16.284 36.867 17.698 4.44.917 7.06.917 11.5 0 6.842-1.414 34.889-14.878 36.867-17.698 1.731-2.468 1.918-22.258.245-25.931C89.821 45.312 56.667 29 53.064 29c-1.743 0-1.259-.794 2.686-4.41 9.484-8.691-.554-24.824-12.25-19.687m1.54 8.549c-1.555 1.873-1.012 4.537 1.21 5.936 3.465 2.182 7.367-2.735 4.71-5.936a3.837 3.837 0 0 0-5.92 0M32 41.894c-5.775 2.638-12.74 5.785-15.478 6.995l-4.978 2.2 14.978 8.197c20.857 11.414 22.141 11.416 42.813.076 8.159-4.477 14.459-8.366 14-8.643C81.92 49.865 52.982 37 52.476 37c-.262 0-.476 3.375-.476 7.5V52h-8v-7.5c0-4.125-.337-7.478-.75-7.451-.413.028-5.475 2.208-11.25 4.845M25.861 50 23.5 52l2.361 2c1.298 1.1 3.161 2 4.139 2 .978 0 2.841-.9 4.139-2l2.361-2-2.361-2c-1.298-1.1-3.161-2-4.139-2-.978 0-2.841.9-4.139 2M12 64.408v4.637l15.25 7.563c20.154 9.995 21.777 9.985 42.25-.251l14-7 .302-4.604.301-4.603-12.801 6.883c-14.285 7.68-20.137 9.519-27.012 8.488-4.005-.601-22.772-9.514-29.993-14.246C12.015 59.78 12 59.8 12 64.408" fill-rule="evenodd"/> </g>
</svg>